<?xml version="1.0" encoding="utf-8"?>
<!-- Generator: Adobe Illustrator 22.1.0, SVG Export Plug-In . SVG Version: 6.00 Build 0)  -->
<svg version="1.1" id="Calque_1" xmlns="http://www.w3.org/2000/svg" xmlns:xlink="http://www.w3.org/1999/xlink" x="0px" y="0px"
	 viewBox="0 0 632 844" style="enable-background:new 0 0 632 844;" xml:space="preserve">
<style type="text/css">
	.st0{fill:#FFFFFF;}
</style>
<g>
	<g>
		<g>
			<path class="st0" d="M490.4,180.1L347,97.3c-18.4-10.7-43.5-10.7-61.9,0l-143.4,82.8c-3.4,2-6.5,4.3-9.4,6.8l16.9,9.8
				c0.5-0.3,0.9-0.8,1.5-1.1l55.4-32c32,24.6,69.9,37.7,109.9,37.7c40,0,78-13,109.9-37.6l55.4,32c0.6,0.4,1.1,0.9,1.7,1.2l16.9-9.8
				C497,184.5,493.9,182.1,490.4,180.1z M294.1,112.9c13.4-7.7,30.6-7.7,43.9,0l22.1,12.8c-28.5,12.2-59.7,12.1-88.2,0L294.1,112.9z
				 M316,183.3c-33.3,0-65.3-10.2-92.9-29.4l29.8-17.2c19.4,10.6,41.1,16.2,63,16.2c21.8,0,43.5-5.6,63-16.2l29.8,17.2
				C381.3,173.1,349.3,183.3,316,183.3z"/>
		</g>
	</g>
	<path class="st0" d="M242.4,467.2c0-74.2-44.5-139.8-113.6-167.5v-52.5l-18-10.4v162.5c0,22,11.9,42.6,30.9,53.6l143.4,82.8
		c1.3,0.7,2.6,1.3,4,2v-20.4l-48.3-27.9C241.9,480.8,242.4,473.8,242.4,467.2z M150.7,437.3c-13.6-7.8-22-22.4-22-38v-24.1
		c24.8,18.1,41.2,45.3,45.6,75.7L150.7,437.3z M223.8,479.5l-30.1-17.4c-1.7-45.1-25.9-85.6-64.9-108.7v-34.2
		c58.2,26.5,95.6,84.2,95.6,148.1C224.4,471.6,224.1,475.9,223.8,479.5z"/>
	<path class="st0" d="M394.6,345.8v-56.2L502.8,227l16.4-9.5c-1.6-5.9-4.1-11.4-7.3-16.5l-122,70.6c-2.4-3.5-5.5-6.4-9.1-8.5
		l-50.8-29.3c-8.3-4.8-19.5-4.8-27.7,0l-50.8,29.3c-3.6,2.1-6.7,5-9.1,8.5l-121.9-70.8c-3.2,5.1-5.8,10.6-7.4,16.5l124.5,72.3v56.2
		c0,9.9,5.3,19.1,13.8,24l50.8,29.3c1.5,0.8,3.1,1.6,4.9,2.2l0,141.9c3,0.4,6,0.7,9,0.7c3,0,6-0.3,9-0.7V401.3
		c1.7-0.6,3.4-1.3,4.9-2.2l50.8-29.3C389.3,364.9,394.6,355.7,394.6,345.8z M282,348.1c-2.4-1-4.6-2.4-6.6-4.4L262,330.3
		c-2-2-3.4-4.1-4.4-6.6c-1-2.4-1.5-4.9-1.5-7.4c0-2.5,0.5-5,1.5-7.4c1-2.4,2.4-4.6,4.4-6.6l40.1-40.1c1.9-1.9,4.1-3.3,6.5-4.3
		c2.4-1,4.9-1.5,7.5-1.5c2.6,0,5,0.4,7.5,1.4c2.4,1,4.6,2.4,6.6,4.4l6.3,6.3l-14.9,14.9l-5.6-5.6l-38.6,38.6l11.9,11.9l14.6-14.6
		l14.8,14.8l-15.2,15.2c-2,2-4.1,3.4-6.6,4.4c-2.4,1-4.9,1.5-7.4,1.5C286.9,349.6,284.4,349.1,282,348.1z M374.5,323.8
		c-1,2.4-2.4,4.6-4.3,6.5l-40.1,40.1c-2,2-4.1,3.4-6.6,4.4c-2.4,1-4.9,1.5-7.4,1.5c-2.5,0-5-0.5-7.4-1.5c-2.4-1-4.6-2.4-6.6-4.4
		l-6.3-6.3l14.7-14.7l5.6,5.6l38.6-38.6l-11.9-11.9l-13.1,13.1l-14.8-14.8l14-14c1.9-1.9,4.1-3.3,6.5-4.3c2.4-1,4.9-1.5,7.5-1.5
		c2.6,0,5,0.4,7.5,1.4c2.4,1,4.6,2.4,6.6,4.4l13.4,13.4c2,2,3.4,4.1,4.4,6.6c1,2.4,1.5,4.9,1.4,7.5
		C376,318.9,375.5,321.4,374.5,323.8z"/>
	<path class="st0" d="M503.4,247.5v52.2c-69.1,27.7-113.6,93.3-113.6,167.5c0,6.6,0.5,13.6,1.6,22l-48.3,27.9v20.4
		c1.3-0.7,2.7-1.2,4-2l143.4-82.8c19.1-11,31-31.6,31-53.6V237L503.4,247.5z M503.4,399.3c0,15.6-8.4,30.2-22,38l-23.6,13.6
		c4.4-30.4,20.8-57.6,45.6-75.7V399.3z M503.4,353.4c-39,23.1-63.2,63.6-64.9,108.7l-30.1,17.4c-0.3-3.6-0.6-7.9-0.6-12.2
		c0-63.8,37.4-121.6,95.7-148.1V353.4z"/>
</g>
<g>
	<path class="st0" d="M184.8,632.9c2.1,0,4,0.4,5.8,1.2c1.8,0.8,3.4,1.8,4.7,3.2c1.3,1.3,2.4,2.9,3.2,4.7c0.8,1.8,1.2,3.7,1.2,5.8
		c0,2-0.4,3.9-1.2,5.7c-0.8,1.8-1.8,3.4-3.2,4.7c-1.3,1.3-2.9,2.4-4.7,3.2c-1.8,0.8-3.7,1.2-5.8,1.2H147v-7.8h37.9
		c1,0,1.9-0.2,2.7-0.5c0.9-0.4,1.6-0.9,2.3-1.5c0.6-0.6,1.2-1.4,1.5-2.2c0.4-0.8,0.5-1.7,0.5-2.7c0-2-0.7-3.6-2.1-5
		c-1.4-1.4-3-2.1-5-2.1h-26.6c-2.1,0-4.1-0.4-5.9-1.2c-1.8-0.8-3.4-1.8-4.8-3.2c-1.4-1.4-2.5-3-3.3-4.8c-0.8-1.8-1.2-3.8-1.2-5.8
		c0-2.1,0.4-4.1,1.2-5.9s1.9-3.4,3.3-4.8c1.4-1.3,3-2.4,4.8-3.2c1.8-0.8,3.8-1.2,5.9-1.2h37.6v7.8h-37.5c-2,0.1-3.6,0.9-4.9,2.3
		c-0.6,0.7-1.1,1.4-1.5,2.3s-0.5,1.8-0.5,2.8c0,1,0.2,1.9,0.5,2.7c0.4,0.8,0.9,1.6,1.5,2.3c1.2,1.4,2.9,2.2,4.9,2.3H184.8z"/>
	<path class="st0" d="M265.4,615c1.4,1.4,2.5,3,3.3,4.8c0.8,1.8,1.2,3.8,1.2,5.9v21.7c0,2.1-0.4,4.1-1.2,5.9s-1.9,3.4-3.3,4.8
		c-1.3,1.4-2.9,2.5-4.8,3.3c-1.8,0.8-3.8,1.2-5.9,1.2h-26.3c-2.1,0-4.1-0.4-5.9-1.2c-1.8-0.8-3.4-1.9-4.8-3.3
		c-1.4-1.3-2.5-2.9-3.3-4.8s-1.2-3.8-1.2-5.9v-21.7c0-2.1,0.4-4.1,1.2-5.9c0.8-1.8,1.9-3.4,3.3-4.8c1.4-1.4,3-2.5,4.8-3.3
		c1.8-0.8,3.8-1.2,5.9-1.2h26.3c2.1,0,4.1,0.4,5.9,1.2C262.5,612.5,264.1,613.6,265.4,615z M261.7,625.7c0-1-0.2-2-0.6-2.9
		c-0.4-0.9-0.9-1.7-1.6-2.4c-0.7-0.7-1.5-1.2-2.3-1.6c-0.9-0.4-1.8-0.6-2.8-0.6H229c-1,0-2,0.2-2.8,0.6c-0.9,0.4-1.7,0.9-2.3,1.6
		c-1.4,1.4-2.2,3.2-2.2,5.3v21.6c0,2.1,0.7,3.8,2.2,5.3c0.7,0.7,1.5,1.2,2.3,1.6c0.9,0.4,1.8,0.6,2.8,0.6h25.3c1,0,2-0.2,2.8-0.6
		c0.9-0.4,1.7-0.9,2.3-1.6c0.7-0.7,1.2-1.5,1.6-2.3c0.4-0.9,0.6-1.9,0.6-2.9V625.7z"/>
	<path class="st0" d="M333.2,610.5h8.3v39.8c0,1.7-0.3,3.3-0.9,4.7c-0.6,1.5-1.5,2.7-2.6,3.9c-1.1,1.1-2.3,2-3.8,2.6
		c-1.5,0.6-3,1-4.7,1c-0.8,0-1.6-0.1-2.3-0.2c-0.7-0.1-1.4-0.3-2.1-0.5c-1.3-0.4-2.5-1-3.4-1.7c-1-0.8-1.8-1.6-2.5-2.4
		c-0.6-0.9-1.2-1.7-1.7-2.5c-0.3-0.6-0.6-1.1-0.9-1.6c-0.2-0.5-0.5-0.9-0.6-1.3c-0.2-0.4-0.6-1.1-1-2c-0.5-0.9-1-2-1.6-3.2
		c-0.6-1.2-1.3-2.6-2-4.1c-0.7-1.5-1.4-3-2.2-4.5c-0.8-1.5-1.5-3.1-2.3-4.6c-0.7-1.5-1.4-2.9-2.1-4.2c-0.6-1.3-1.2-2.5-1.7-3.5
		c-0.5-1-0.9-1.8-1.2-2.4c-0.2-0.5-0.5-1-0.8-1.5c-0.3-0.5-0.5-0.9-0.8-1.3c-0.2-0.4-0.6-0.9-1.2-1.5c-0.5-0.6-1.2-0.9-2-0.9
		c-0.6,0-1.2,0.1-1.7,0.4c-0.5,0.2-1,0.5-1.3,0.9c-0.7,0.8-1.1,1.8-1.1,3.1v39.8H285v-39.8c0-3.4,1.1-6.3,3.2-8.6
		c1.1-1.1,2.3-2,3.8-2.6c1.5-0.6,3.1-1,4.9-1c1.8,0,3.4,0.2,4.8,0.7c1.5,0.5,2.8,1.3,4,2.6c0.7,0.7,1.5,1.7,2.2,2.8
		c0.5,0.7,1,1.5,1.4,2.4c0.5,0.9,1,1.8,1.5,2.9c0.6,1.3,1.5,3.1,2.7,5.4s2.4,4.7,3.6,7.2c1.2,2.5,2.4,4.9,3.6,7.3
		c1.1,2.3,2,4.1,2.7,5.4c0.2,0.4,0.4,0.7,0.5,1c0.1,0.3,0.2,0.4,0.3,0.5c0.4,0.7,0.7,1.3,1,1.8c0.3,0.5,0.5,1,0.8,1.4
		c0.1,0.2,0.3,0.4,0.5,0.8c0.2,0.3,0.4,0.6,0.7,0.9c0.3,0.3,0.6,0.5,0.9,0.7c0.4,0.2,0.8,0.3,1.2,0.3c0.6,0,1.2-0.1,1.8-0.4
		c0.5-0.2,0.9-0.5,1.2-0.9c0.7-0.8,1.1-1.8,1.1-3.1V610.5z"/>
	<path class="st0" d="M408.7,614.9c1.4,1.4,2.5,3,3.3,4.8s1.2,3.8,1.2,5.9v36.9h-8.3V639h-40v23.5h-8.2v-36.9c0-2.1,0.4-4.1,1.2-5.9
		s1.9-3.4,3.3-4.8c1.3-1.4,2.9-2.5,4.8-3.2c1.8-0.8,3.8-1.2,5.9-1.2H398c2.1,0,4.1,0.4,5.9,1.2C405.7,612.4,407.3,613.5,408.7,614.9
		z M404.9,625.7c0-2.1-0.7-3.8-2.2-5.3c-1.3-1.4-3.1-2.2-5.2-2.2h-25.3c-2.1,0-3.8,0.7-5.3,2.2c-0.7,0.7-1.2,1.5-1.6,2.3
		c-0.4,0.9-0.6,1.9-0.6,2.9v5.5h40V625.7z"/>
	<path class="st0" d="M476.5,662.5v-14.4c0-2-0.7-3.7-2-5c-1.3-1.4-2.9-2.2-4.9-2.3h-33.1v21.7h-8.2v-21.7v-15.1
		c0-2.1,0.4-4.1,1.2-5.9c0.8-1.8,1.9-3.4,3.3-4.8c1.3-1.4,2.9-2.5,4.8-3.3c1.8-0.8,3.8-1.2,5.9-1.2h26.3c2.1,0,4.1,0.4,5.9,1.2
		s3.4,1.9,4.8,3.3c1.4,1.4,2.5,3,3.3,4.8c0.8,1.8,1.2,3.8,1.2,5.9c0,2.3-0.5,4.3-1.4,6.3c-0.9,1.9-2.1,3.6-3.7,5
		c1.5,1.4,2.8,3,3.7,5c0.9,1.9,1.4,4,1.4,6.2v14.5H476.5z M469.2,633c1,0,2-0.2,2.8-0.6c0.9-0.4,1.7-0.9,2.3-1.6
		c1.4-1.3,2.2-3.1,2.2-5.2c0-2-0.7-3.7-2.2-5.2c-0.7-0.7-1.5-1.2-2.3-1.6c-0.9-0.4-1.8-0.6-2.8-0.6h-25.3c-1,0-2,0.2-2.8,0.6
		c-0.9,0.4-1.7,0.9-2.3,1.6c-1.4,1.4-2.1,3.1-2.2,5.2v7.3H469.2z"/>
</g>
<g>
	<path class="st0" d="M150.8,713.9v25.4h-3.9v-54.7h23.4c7.8,0,11.7,3.9,11.7,11.7v5.9c0,7.8-3.9,11.7-11.7,11.7H150.8z
		 M150.8,688.5v21.5h19.5c5.2,0,7.8-2.6,7.8-7.8v-5.9c0-5.2-2.6-7.8-7.8-7.8H150.8z"/>
	<path class="st0" d="M213.8,735.3h27.3v3.9h-31.2v-54.7h3.9V735.3z"/>
	<path class="st0" d="M304.1,739.2h-3.9l-4.8-15.6h-21.6l-4.8,15.6H265l16.4-54.7h6.2L304.1,739.2z M274.9,719.7h19.2l-9.6-31.2
		L274.9,719.7z"/>
	<path class="st0" d="M331.9,684.6l27.3,46.9v-46.9h3.9v54.7h-3.9l-27.3-46.9v46.9H328v-54.7H331.9z"/>
	<path class="st0" d="M422.2,709.9v3.9h-27.3v21.5h27.3v3.9H391v-54.7h31.2v3.9h-27.3v21.5H422.2z"/>
	<path class="st0" d="M485.2,684.6v3.9h-15.6v50.8h-3.9v-50.8H450v-3.9H485.2z"/>
</g>
</svg>
