<?xml version="1.0" encoding="utf-8"?>
<!-- Generator: Adobe Illustrator 22.1.0, SVG Export Plug-In . SVG Version: 6.00 Build 0)  -->
<svg version="1.1" id="Calque_1" xmlns="http://www.w3.org/2000/svg" xmlns:xlink="http://www.w3.org/1999/xlink" x="0px" y="0px"
	 viewBox="0 0 1172 562" style="enable-background:new 0 0 1172 562;" xml:space="preserve">
<style type="text/css">
	.st0{fill:#FFFFFF;}
</style>
<g>
	<g>
		<g>
			<path class="st0" d="M439.7,143.5L296.3,60.7c-18.4-10.7-43.5-10.7-61.9,0L91,143.5c-3.4,2-6.5,4.3-9.4,6.8l16.9,9.8
				c0.5-0.3,0.9-0.8,1.5-1.1l55.4-32c32,24.6,69.9,37.7,109.9,37.7c40,0,78-13,109.9-37.6l55.4,32c0.6,0.4,1.1,0.9,1.7,1.2l16.9-9.8
				C446.3,147.9,443.2,145.5,439.7,143.5z M243.4,76.2c13.4-7.7,30.6-7.7,43.9,0L309.4,89c-28.5,12.2-59.7,12.1-88.2,0L243.4,76.2z
				 M265.3,146.6c-33.3,0-65.3-10.2-92.9-29.4l29.8-17.2c19.4,10.6,41.1,16.2,63,16.2c21.8,0,43.5-5.6,63-16.2l29.8,17.2
				C330.6,136.5,298.6,146.6,265.3,146.6z"/>
		</g>
	</g>
	<path class="st0" d="M191.7,430.6c0-74.2-44.5-139.8-113.6-167.5v-52.5l-18-10.4v162.5c0,22,11.9,42.6,30.9,53.6L234.4,499
		c1.3,0.7,2.6,1.3,4,2v-20.4l-48.3-27.9C191.2,444.2,191.7,437.2,191.7,430.6z M100,400.7c-13.6-7.8-22-22.4-22-38v-24.1
		c24.8,18.1,41.2,45.3,45.6,75.7L100,400.7z M173.1,442.9L143,425.5c-1.7-45.1-25.9-85.6-64.9-108.7v-34.2
		c58.2,26.5,95.6,84.2,95.6,148.1C173.7,435,173.4,439.2,173.1,442.9z"/>
	<path class="st0" d="M343.9,309.2V253l108.2-62.6l16.4-9.5c-1.6-5.9-4.1-11.4-7.3-16.5l-122,70.6c-2.4-3.5-5.5-6.4-9.1-8.5
		l-50.8-29.3c-8.3-4.8-19.5-4.8-27.7,0l-50.8,29.3c-3.6,2.1-6.7,5-9.1,8.5L69.7,164.2c-3.2,5.1-5.8,10.6-7.4,16.5L186.9,253v56.2
		c0,9.9,5.3,19.1,13.8,24l50.8,29.3c1.5,0.8,3.1,1.6,4.9,2.2l0,141.9c3,0.4,6,0.7,9,0.7c3,0,6-0.3,9-0.7V364.7
		c1.7-0.6,3.4-1.3,4.9-2.2l50.8-29.3C338.6,328.3,343.9,319.1,343.9,309.2z M231.3,311.5c-2.4-1-4.6-2.4-6.6-4.4l-13.4-13.4
		c-2-2-3.4-4.1-4.4-6.6c-1-2.4-1.5-4.9-1.5-7.4c0-2.5,0.5-5,1.5-7.4c1-2.4,2.4-4.6,4.4-6.6l40.1-40.1c1.9-1.9,4.1-3.3,6.5-4.3
		c2.4-1,4.9-1.5,7.5-1.5c2.6,0,5,0.4,7.5,1.4c2.4,1,4.6,2.4,6.6,4.4l6.3,6.3l-14.9,14.9l-5.6-5.6l-38.6,38.6l11.9,11.9l14.6-14.6
		l14.8,14.8l-15.2,15.2c-2,2-4.1,3.4-6.6,4.4c-2.4,1-4.9,1.5-7.4,1.5C236.2,313,233.7,312.5,231.3,311.5z M323.8,287.2
		c-1,2.4-2.4,4.6-4.3,6.5l-40.1,40.1c-2,2-4.1,3.4-6.6,4.4c-2.4,1-4.9,1.5-7.4,1.5c-2.5,0-5-0.5-7.4-1.5c-2.4-1-4.6-2.4-6.6-4.4
		l-6.3-6.3l14.7-14.7l5.6,5.6l38.6-38.6L292,267.9L278.9,281l-14.8-14.8l14-14c1.9-1.9,4.1-3.3,6.5-4.3c2.4-1,4.9-1.5,7.5-1.5
		c2.6,0,5,0.4,7.5,1.4c2.4,1,4.6,2.4,6.6,4.4l13.4,13.4c2,2,3.4,4.1,4.4,6.6c1,2.4,1.5,4.9,1.4,7.5
		C325.3,282.3,324.8,284.8,323.8,287.2z"/>
	<path class="st0" d="M452.7,210.9v52.2C383.6,290.9,339,356.5,339,430.6c0,6.6,0.5,13.6,1.6,22l-48.3,27.9V501c1.3-0.7,2.7-1.2,4-2
		l143.4-82.8c19.1-11,31-31.6,31-53.6V200.4L452.7,210.9z M452.7,362.6c0,15.6-8.4,30.2-22,38l-23.6,13.6
		c4.4-30.4,20.8-57.6,45.6-75.7V362.6z M452.7,316.8c-39,23.1-63.2,63.6-64.9,108.7l-30.1,17.4c-0.3-3.6-0.6-7.9-0.6-12.2
		c0-63.8,37.4-121.6,95.7-148.1V316.8z"/>
</g>
<g>
	<path class="st0" d="M615.8,212.2c3.5,0,6.7,0.6,9.7,1.9c3,1.3,5.7,3.1,7.9,5.3c2.3,2.3,4,4.9,5.3,7.9c1.3,3,1.9,6.3,1.9,9.7
		c0,3.4-0.6,6.6-1.9,9.6c-1.3,3-3.1,5.7-5.3,7.9c-2.3,2.3-4.9,4-7.9,5.3c-3,1.3-6.3,1.9-9.7,1.9h-63.6v-13.1h63.6
		c1.6,0,3.1-0.3,4.6-0.9c1.5-0.6,2.7-1.4,3.8-2.5c1.1-1.1,1.9-2.3,2.5-3.7c0.6-1.4,0.9-2.9,0.9-4.5c0-3.3-1.1-6.1-3.4-8.4
		c-2.3-2.3-5.1-3.4-8.4-3.4h-44.6c-3.5,0-6.8-0.6-9.9-1.9c-3-1.3-5.7-3.1-8-5.4c-2.3-2.3-4.2-5-5.5-8.1c-1.3-3.1-2-6.3-2-9.8
		c0-3.5,0.7-6.8,2-9.9c1.3-3.1,3.2-5.8,5.5-8.1c2.3-2.3,5-4.1,8-5.4c3-1.3,6.3-2,9.9-2h63.1v13.1h-63c-3.3,0.2-6,1.5-8.2,3.9
		c-1,1.1-1.9,2.4-2.5,3.8c-0.6,1.4-0.9,3-0.9,4.7c0,1.6,0.3,3.1,0.9,4.5c0.6,1.4,1.4,2.7,2.5,3.8c2.1,2.3,4.8,3.6,8.2,3.9H615.8z"/>
	<path class="st0" d="M751.1,182.1c2.3,2.3,4.2,5,5.5,8c1.3,3,2,6.3,2,9.9v36.5c0,3.5-0.7,6.9-2,9.9c-1.3,3.1-3.2,5.7-5.5,8
		c-2.3,2.3-4.9,4.2-8,5.5c-3.1,1.3-6.4,2-9.9,2H689c-3.5,0-6.8-0.7-9.9-2c-3-1.3-5.7-3.2-8-5.5c-2.3-2.3-4.2-4.9-5.5-8s-2-6.4-2-9.9
		V200c0-3.5,0.7-6.8,2-9.9c1.3-3,3.2-5.7,5.5-8c2.3-2.3,5-4.2,8-5.5c3-1.3,6.3-2,9.9-2h44.1c3.5,0,6.8,0.7,9.9,2
		C746.1,177.9,748.8,179.8,751.1,182.1z M744.8,200.1c0-1.7-0.3-3.3-1-4.8c-0.7-1.5-1.6-2.9-2.7-4c-1.1-1.1-2.4-2-3.9-2.7
		c-1.5-0.6-3.1-1-4.8-1h-42.4c-1.7,0-3.3,0.3-4.8,1c-1.5,0.6-2.8,1.5-3.9,2.7c-2.4,2.4-3.6,5.4-3.6,8.8v36.3c0,3.5,1.2,6.4,3.6,8.8
		c1.1,1.1,2.4,2,3.9,2.7c1.5,0.6,3.1,1,4.8,1h42.4c1.7,0,3.3-0.3,4.8-1c1.5-0.6,2.8-1.5,3.9-2.7c1.1-1.1,2-2.4,2.7-3.9
		c0.7-1.5,1-3.1,1-4.9V200.1z"/>
	<path class="st0" d="M864.9,174.6h13.9v66.9c0,2.8-0.5,5.5-1.5,7.9c-1,2.5-2.4,4.6-4.3,6.5c-1.8,1.9-3.9,3.3-6.3,4.4
		c-2.5,1.1-5.1,1.6-7.9,1.6c-1.4,0-2.7-0.1-3.9-0.3c-1.2-0.2-2.4-0.5-3.5-0.9c-2.3-0.7-4.2-1.7-5.7-2.9c-1.7-1.3-3.1-2.7-4.2-4.1
		c-1.1-1.4-2-2.9-2.8-4.2c-0.6-1-1-1.9-1.5-2.7c-0.4-0.8-0.8-1.6-1.1-2.2c-0.4-0.7-1-1.9-1.8-3.4c-0.8-1.5-1.7-3.3-2.7-5.4
		c-1-2.1-2.2-4.4-3.3-6.9c-1.2-2.5-2.4-5-3.7-7.6c-1.3-2.6-2.6-5.1-3.8-7.7c-1.3-2.5-2.4-4.9-3.5-7.1c-1.1-2.2-2-4.2-2.8-5.9
		c-0.8-1.7-1.5-3-1.9-4c-0.4-0.9-0.8-1.7-1.3-2.5c-0.4-0.8-0.9-1.5-1.3-2.2c-0.4-0.6-1-1.5-1.9-2.5c-0.9-1-2-1.5-3.4-1.5
		c-1,0-1.9,0.2-2.9,0.6c-0.9,0.4-1.6,0.9-2.2,1.5c-1.2,1.4-1.8,3.1-1.8,5.2v66.9h-13.9V195c0-5.7,1.8-10.5,5.4-14.4
		c1.8-1.9,3.9-3.3,6.3-4.4c2.5-1.1,5.2-1.6,8.2-1.6c3,0,5.6,0.4,8,1.2c2.5,0.8,4.7,2.3,6.6,4.4c1.2,1.2,2.5,2.8,3.7,4.7
		c0.8,1.2,1.6,2.5,2.4,4c0.8,1.5,1.7,3.1,2.5,4.8c1,2.2,2.5,5.2,4.5,9.1c1.9,3.9,3.9,7.9,6,12.2c2.1,4.2,4.1,8.3,6,12.2
		c1.9,3.9,3.4,7,4.5,9.1c0.4,0.6,0.7,1.2,0.8,1.6c0.2,0.4,0.3,0.7,0.5,0.9c0.6,1.1,1.2,2.1,1.6,3c0.4,0.9,0.9,1.7,1.3,2.4
		c0.2,0.3,0.5,0.7,0.8,1.3c0.3,0.5,0.7,1,1.1,1.5c0.4,0.5,1,0.9,1.6,1.2c0.6,0.3,1.3,0.5,2,0.5c1,0,2.1-0.2,3-0.6
		c0.9-0.4,1.6-0.9,2.1-1.5c1.2-1.4,1.8-3.1,1.8-5.2V174.6z"/>
	<path class="st0" d="M991.6,182c2.3,2.3,4.2,5,5.5,8.1c1.3,3.1,2,6.4,2,9.9v61.9h-13.9v-39.4H918v39.4h-13.8V200
		c0-3.5,0.7-6.8,2-9.9c1.3-3.1,3.2-5.8,5.5-8.1c2.3-2.3,4.9-4.2,8-5.4c3.1-1.3,6.4-1.9,9.9-1.9h44.1c3.5,0,6.8,0.6,9.9,1.9
		C986.6,177.8,989.3,179.7,991.6,182z M985.2,200.1c0-3.5-1.2-6.4-3.6-8.8c-2.3-2.4-5.2-3.6-8.7-3.6h-42.4c-3.5,0-6.4,1.2-8.8,3.6
		c-1.1,1.1-2,2.4-2.7,3.9c-0.6,1.5-1,3.1-1,4.9v9.3h67.2V200.1z"/>
	<path class="st0" d="M1105.5,261.9v-24.2c0-3.4-1.1-6.2-3.4-8.5c-2.2-2.4-4.9-3.7-8.2-3.9h-55.6v36.5h-13.8v-36.5V200
		c0-3.5,0.7-6.8,2-9.9c1.3-3,3.2-5.7,5.5-8c2.3-2.3,4.9-4.2,8-5.5c3.1-1.3,6.4-2,9.9-2h44.1c3.5,0,6.8,0.7,9.9,2s5.7,3.2,8,5.5
		c2.3,2.3,4.2,5,5.5,8c1.3,3,2,6.3,2,9.9c0,3.8-0.8,7.3-2.3,10.5c-1.5,3.2-3.6,6-6.2,8.3c2.6,2.3,4.6,5.1,6.2,8.3
		c1.5,3.2,2.3,6.7,2.3,10.4v24.3H1105.5z M1093.2,212.3c1.7,0,3.3-0.3,4.8-1c1.5-0.6,2.8-1.5,3.9-2.7c2.4-2.3,3.6-5.2,3.6-8.7
		c0-3.4-1.2-6.3-3.6-8.7c-1.1-1.1-2.4-2-3.9-2.7c-1.5-0.6-3.1-1-4.8-1h-42.4c-1.7,0-3.3,0.3-4.8,1c-1.5,0.6-2.8,1.5-3.9,2.7
		c-2.3,2.3-3.6,5.2-3.7,8.7v12.3H1093.2z"/>
</g>
<g>
	<path class="st0" d="M558.6,348.2v42.6H552V299h39.4c13.1,0,19.7,6.6,19.7,19.7v9.8c0,13.1-6.6,19.7-19.7,19.7H558.6z M558.6,305.5
		v36.1h32.8c8.7,0,13.1-4.4,13.1-13.1v-9.8c0-8.7-4.4-13.1-13.1-13.1H558.6z"/>
	<path class="st0" d="M664.3,384.2h45.9v6.6h-52.5V299h6.6V384.2z"/>
	<path class="st0" d="M816,390.8h-6.6l-8.1-26.2H765l-8.1,26.2h-6.6l27.5-91.8h10.5L816,390.8z M767.1,358h32.3l-16.1-52.5
		L767.1,358z"/>
	<path class="st0" d="M862.7,299l45.9,78.7V299h6.6v91.8h-6.6l-45.9-78.7v78.7h-6.6V299H862.7z"/>
	<path class="st0" d="M1014.3,341.6v6.6h-45.9v36.1h45.9v6.6h-52.5V299h52.5v6.6h-45.9v36.1H1014.3z"/>
	<path class="st0" d="M1120.1,299v6.6h-26.2v85.3h-6.6v-85.3H1061V299H1120.1z"/>
</g>
</svg>
